<?xml version="1.0" encoding="UTF-8"?><svg id="Layer_1" xmlns="http://www.w3.org/2000/svg" viewBox="0 0 634.13 634.13"><defs><style>.cls-1{fill:#fff;stroke-width:0px;}</style></defs><path class="cls-1" d="M617.94,16.19h0c-21.59-21.59-56.58-21.59-78.17,0l-222.71,222.71L94.36,16.19c-21.59-21.59-56.58-21.59-78.17,0h0c-21.59,21.59-21.59,56.58,0,78.17l222.71,222.71L16.19,539.77c-21.59,21.59-21.59,56.58,0,78.17h0c21.59,21.59,56.58,21.59,78.17,0l222.71-222.71,222.71,222.71c21.59,21.59,56.58,21.59,78.17,0h0c21.59-21.59,21.59-56.58,0-78.17l-222.71-222.71,222.71-222.71c21.59-21.59,21.59-56.58,0-78.17Z"/></svg>