<?xml version="1.0" encoding="UTF-8" standalone="no"?>
<!-- Created with Inkscape (http://www.inkscape.org/) -->

<svg
   width="529.16669mm"
   height="529.16669mm"
   viewBox="0 0 529.16669 529.16669"
   version="1.1"
   id="svg5"
   inkscape:export-filename="bitmap.svg"
   inkscape:export-xdpi="96"
   inkscape:export-ydpi="96"
   xmlns:inkscape="http://www.inkscape.org/namespaces/inkscape"
   xmlns:sodipodi="http://sodipodi.sourceforge.net/DTD/sodipodi-0.dtd"
   xmlns="http://www.w3.org/2000/svg"
   xmlns:svg="http://www.w3.org/2000/svg">
  <sodipodi:namedview
     id="namedview7"
     pagecolor="#ffffff"
     bordercolor="#000000"
     borderopacity="0.25"
     inkscape:showpageshadow="2"
     inkscape:pageopacity="0.0"
     inkscape:pagecheckerboard="0"
     inkscape:deskcolor="#d1d1d1"
     inkscape:document-units="mm"
     showgrid="false"
     inkscape:lockguides="true" />
  <defs
     id="defs2" />
  <g
     inkscape:label="Layer 1"
     inkscape:groupmode="layer"
     id="layer1">
    <path
       style="fill:#000000;fill-opacity:1;stroke:none;stroke-width:3.91999;stroke-linecap:square;stroke-miterlimit:10;stroke-dashoffset:19.3686;paint-order:markers fill stroke;stop-color:#000000"
       d="m 122.16931,411.81158 c 17.98962,40.9561 54.16757,76.31391 82.70886,80.97371 C 318.24137,511.29357 39.460449,299.02677 256.9327,326.2108 358.56631,338.915 335.59288,432.63339 364.51205,455.76874 393.43125,478.90408 380.7068,328.52433 317.08459,308.85929 253.4624,289.19425 166.70485,259.1183 149.35334,171.20399 132.00183,83.289678 32.519849,175.83106 98.455579,225.57205 c 65.935741,49.74099 5.724111,145.28344 23.713731,186.23953 z"
       id="path1404"
       sodipodi:nodetypes="zssssssz" />
    <path
       style="font-variation-settings:normal;opacity:1;vector-effect:none;fill:#000000;fill-opacity:1;stroke:none;stroke-width:3.91999;stroke-linecap:square;stroke-linejoin:miter;stroke-miterlimit:10;stroke-dasharray:none;stroke-dashoffset:19.3686;stroke-opacity:1;-inkscape-stroke:none;paint-order:markers fill stroke;stop-color:#000000;stop-opacity:1"
       d="M 349.43176,536.98252 C 300.8321,517.07787 192.7309,406.31183 230.90421,387.80353 c 38.17334,-18.50826 132.28252,151.37626 186.65059,97.00818 54.36806,-54.36806 -75.18987,-271.8403 -39.33008,-294.97564 35.85978,-23.13535 159.63387,303.073 94.8549,331.99221 -64.77897,28.91917 -75.0482,35.05888 -123.64786,15.15424 z"
       id="path1406"
       sodipodi:nodetypes="zssssz" />
    <path
       style="fill:#000000;fill-opacity:1;stroke:none;stroke-width:3.91999;stroke-linecap:square;stroke-miterlimit:10;stroke-dashoffset:19.3686;paint-order:markers fill stroke;stop-color:#000000"
       d="M 349.43176,7.8158121 C 300.8321,-12.088838 192.7309,-122.85488 230.90421,-141.36318 269.07755,-159.87144 363.18673,10.013082 417.5548,-44.354998 471.92286,-98.723058 342.36493,-316.1953 378.22472,-339.33064 414.0845,-362.46599 537.85859,-36.257638 473.07962,-7.3384283 408.30065,21.580742 398.03142,27.720452 349.43176,7.8158121 Z"
       id="path1406-3"
       sodipodi:nodetypes="zssssz" />
    <path
       style="fill:#000000;fill-opacity:1;stroke:none;stroke-width:3.91999;stroke-linecap:square;stroke-miterlimit:10;stroke-dashoffset:19.3686;paint-order:markers fill stroke;stop-color:#000000"
       d="m 113.60982,-45.8674 c 47.20891,25.10784 94.92302,146.66281 -49.672893,151.28988 -144.59591,4.62706 -145.20157,-123.55964 -76.34664,-79.81694 C 58.550027,70.6854 122.66548,82.21904 70.083647,-6.2225802 17.501817,-94.66421 66.400907,-70.97524 113.60982,-45.8674 Z"
       id="path1414"
       sodipodi:nodetypes="zsszz" />
    <path
       style="fill:#000000;fill-opacity:1;stroke:none;stroke-width:3.91999;stroke-linecap:square;stroke-miterlimit:10;stroke-dashoffset:19.3686;paint-order:markers fill stroke;stop-color:#000000"
       d="m 642.77612,-45.8674 c 47.20891,25.10784 94.92302,146.66281 -49.67289,151.28988 C 448.50732,110.04954 447.90166,-18.13716 516.75659,25.60554 587.71633,70.6854 651.83178,82.21904 599.24995,-6.2225802 546.66812,-94.66421 595.56721,-70.97524 642.77612,-45.8674 Z"
       id="path1414-07"
       sodipodi:nodetypes="zsszz" />
    <path
       style="fill:#000000;fill-opacity:1;stroke:none;stroke-width:3.91999;stroke-linecap:square;stroke-miterlimit:10;stroke-dashoffset:19.3686;paint-order:markers fill stroke;stop-color:#000000"
       d="m 113.60982,483.29957 c 47.20891,25.10784 94.92302,146.66281 -49.672893,151.28988 -144.59591,4.62706 -145.20157,-123.55964 -76.34664,-79.81694 70.95974,45.07986 135.075193,56.6135 82.49336,-31.82812 -52.58183,-88.44163 -3.68274,-64.75266 43.526173,-39.64482 z"
       id="path1414-0"
       sodipodi:nodetypes="zsszz" />
    <path
       style="font-variation-settings:normal;opacity:1;vector-effect:none;fill:#000000;fill-opacity:1;stroke:none;stroke-width:3.91999;stroke-linecap:square;stroke-linejoin:miter;stroke-miterlimit:10;stroke-dasharray:none;stroke-dashoffset:73.2042;stroke-opacity:1;-inkscape-stroke:none;paint-order:markers fill stroke;stop-color:#000000;stop-opacity:1"
       d="M 425.98171,103.37744 C 395.97089,65.108533 264.20044,-26.992614 200.39971,56.4391 136.59898,139.87082 292.82897,290.37509 333.72687,277.28776 374.62475,264.20044 219.21274,136.59899 255.2029,83.431713 305.13737,9.664892 471.15376,272.77281 490.78476,246.59816 510.41576,220.4235 455.99253,141.64634 425.98171,103.37744 Z"
       id="path1592"
       sodipodi:nodetypes="zssssz" />
    <path
       style="font-variation-settings:normal;opacity:1;vector-effect:none;fill:#000000;fill-opacity:1;stroke:none;stroke-width:3.91999;stroke-linecap:square;stroke-linejoin:miter;stroke-miterlimit:10;stroke-dasharray:none;stroke-dashoffset:73.2042;stroke-opacity:1;-inkscape-stroke:none;paint-order:markers fill stroke;stop-color:#000000;stop-opacity:1"
       d="M 3.2718318,129.23736 C 34.354234,159.91079 96.519041,319.00362 62.164806,366.44518 27.810572,413.88674 -43.351772,483.41316 -26.992614,395.89167 -10.633453,308.37015 38.444025,302.64446 0.81795778,232.30006 -36.808107,161.95568 -27.81057,98.563932 3.2718318,129.23736 Z"
       id="path1594"
       sodipodi:nodetypes="zsssz" />
    <path
       style="font-variation-settings:normal;vector-effect:none;fill:#000000;fill-opacity:1;stroke:none;stroke-width:3.91999;stroke-linecap:square;stroke-linejoin:miter;stroke-miterlimit:10;stroke-dasharray:none;stroke-dashoffset:73.2042;stroke-opacity:1;-inkscape-stroke:none;paint-order:markers fill stroke;stop-color:#000000"
       d="m 532.43864,129.23736 c 31.0824,30.67343 93.24721,189.76626 58.89297,237.20782 -34.35423,47.44156 -105.51657,116.96798 -89.15742,29.44649 16.35917,-87.52152 65.43664,-93.24721 27.81058,-163.59161 -37.62607,-70.34438 -28.62853,-133.736128 2.45387,-103.0627 z"
       id="path1594-5"
       sodipodi:nodetypes="zsssz" />
  </g>
</svg>
