<?xml version="1.0" encoding="UTF-8"?>


<svg id="Layer_1" xmlns="http://www.w3.org/2000/svg" viewBox="0 0 720 720"><defs><style>.cls-1{stroke:#000;stroke-miterlimit:10;}.cls-2,.cls-3{stroke-width:0px;}.cls-3{fill:#fff;}</style></defs><path class="cls-3" d="M530.13,435.66c-19.59-48.58-9.89-94.93,2.06-125.78,13.61-35.12,33.02-58.44,33.22-58.67l1.84-2.19-1.48-2.45c-.57-.94-14.2-23.18-45.15-45.63-28.45-20.63-77.54-45.22-149.83-45.22-37.55,0-78.2,6.6-120.8,19.61-17.7,5.41-33.51,8.15-46.99,8.15-22.27,0-38.41-7.6-46.67-21.97-10.24-17.83-6.56-42.64,2.37-57.94,15.91-27.27,45.9-45.41,89.14-53.91,33.32-6.55,65.41-9.87,95.37-9.87,51.74,0,98.6,9.84,139.3,29.24,32.52,15.51,61.22,37.14,85.3,64.29,41.11,46.35,54.69,93.38,54.82,93.85l.75,2.67,2.77.23c18.44,1.52,34.58,9.97,48,25.13,10.95,12.38,20.16,29.22,27.35,50.05,9.13,26.42,12.67,52.69,13.91,64.84l-97.23-48.28-88.05,113.86Z"/><path class="cls-2" d="M343.2,43.78c51.05,0,97.26,9.67,137.37,28.76,32.01,15.23,60.28,36.49,84,63.17,40.62,45.67,54.07,92.09,54.2,92.54l1.5,5.35,5.54.46c17.35,1.43,32.59,9.41,45.29,23.74,10.6,11.96,19.54,28.31,26.57,48.62,7.5,21.67,11.19,43.26,12.92,56.82l-87.69-43.55-5.87-2.92-4.01,5.19-81.67,105.6c-6.34-18.07-9.15-37.01-8.37-56.48.78-19.41,5.11-39.43,12.86-59.51,13.35-34.56,32.45-57.55,32.64-57.78l3.69-4.38-2.96-4.9c-.58-.96-14.62-23.88-46.23-46.8-18.44-13.38-39.13-24.03-61.5-31.66-27.84-9.5-58.35-14.32-90.68-14.32-37.95,0-78.99,6.66-121.97,19.79-17.32,5.29-32.74,7.97-45.82,7.97-21.06,0-35.59-6.72-43.2-19.97-9.48-16.51-5.99-39.63,2.35-53.94,8.2-14.05,20.35-25.67,36.12-34.53,13.76-7.73,30.7-13.61,50.34-17.47,33.07-6.5,64.89-9.79,94.59-9.79M343.2,35.78c-29.13,0-61.08,3.05-96.14,9.94-37.29,7.33-72.67,22.99-91.82,55.82-16.88,28.93-15.22,85.93,47.76,85.93,13.22,0,29.14-2.51,48.16-8.32,45.45-13.89,85.17-19.44,119.63-19.44,137.88,0,191.56,88.92,191.56,88.92,0,0-79.04,93.88-33.22,194.86l90.21-116.64,100.66,49.99s-7.94-143.71-93.53-150.75c0,0-53.42-190.3-283.27-190.3h0Z"/><circle class="cls-3" cx="198.46" cy="132.03" r="28.09"/><path class="cls-2" d="M198.46,107.94c13.28,0,24.09,10.81,24.09,24.09s-10.81,24.09-24.09,24.09-24.09-10.81-24.09-24.09,10.81-24.09,24.09-24.09M198.46,99.94c-17.72,0-32.09,14.37-32.09,32.09s14.37,32.09,32.09,32.09,32.09-14.37,32.09-32.09-14.37-32.09-32.09-32.09h0Z"/><circle class="cls-1" cx="198.46" cy="132.03" r="14.92"/>



<animateTransform attributeName = "transform"

attributeType="XML"
type="rotate"
from="360"
to="0"
dur ="1s"
repeatCount = "indefinite"




/>




</svg>